<svg xmlns="http://www.w3.org/2000/svg" xmlns:xlink="http://www.w3.org/1999/xlink" width="1000" zoomAndPan="magnify" viewBox="0 0 750 749.999995" height="1000" preserveAspectRatio="xMidYMid meet" version="1.0"><defs><clipPath id="fef8210b37"><path d="M 47.195312 47.195312 L 702.695312 47.195312 L 702.695312 702.695312 L 47.195312 702.695312 Z M 47.195312 47.195312 " clip-rule="nonzero"/></clipPath></defs><rect x="-75" width="900" fill="#ffffff" y="-74.999999" height="899.999994" fill-opacity="1"/><rect x="-75" width="900" fill="#ffffff" y="-74.999999" height="899.999994" fill-opacity="1"/><g clip-path="url(#fef8210b37)"><path fill="#673ab7" d="M 702.695312 611.652344 C 702.695312 661.945312 661.945312 702.695312 611.652344 702.695312 L 138.238281 702.695312 C 87.964844 702.695312 47.195312 661.945312 47.195312 611.652344 L 47.195312 138.238281 C 47.195312 87.945312 87.964844 47.195312 138.238281 47.195312 L 611.652344 47.195312 C 661.945312 47.195312 702.695312 87.945312 702.695312 138.238281 Z M 702.695312 611.652344 " fill-opacity="1" fill-rule="nonzero"/></g><path fill="#ffffff" d="M 539.367188 404.078125 C 527.53125 387.691406 510.414062 376.402344 488.382812 370.394531 C 488.382812 370.394531 506.957031 363.65625 523.707031 338.527344 C 533.722656 322.503906 538.820312 303.203125 538.820312 280.625 C 538.820312 241.476562 524.617188 211.433594 496.210938 190.859375 C 467.808594 170.285156 435.761719 156.445312 381.316406 156.445312 L 211.070312 156.445312 L 211.070312 593.445312 L 400.984375 593.445312 C 452.511719 593.082031 491.296875 581.972656 517.699219 560.671875 C 543.917969 539.003906 557.027344 506.957031 557.027344 464.167969 C 557.027344 440.496094 551.203125 420.464844 539.367188 404.078125 Z M 320.320312 229.277344 C 320.320312 229.277344 396.25 229.277344 397.707031 229.277344 C 425.382812 229.277344 447.777344 251.675781 447.777344 279.351562 C 447.777344 307.027344 425.382812 329.425781 397.707031 329.425781 C 396.25 329.425781 320.320312 329.425781 320.320312 329.425781 Z M 411.363281 520.613281 L 320.320312 520.613281 L 320.320312 411.363281 L 411.363281 411.363281 C 441.585938 411.363281 465.988281 435.761719 465.988281 465.988281 C 465.988281 496.210938 441.585938 520.613281 411.363281 520.613281 Z M 411.363281 520.613281 " fill-opacity="1" fill-rule="nonzero"/></svg>