<svg xmlns="http://www.w3.org/2000/svg" xmlns:xlink="http://www.w3.org/1999/xlink" width="1000" zoomAndPan="magnify" viewBox="0 0 750 749.999995" height="1000" preserveAspectRatio="xMidYMid meet" version="1.0"><defs><clipPath id="f5837e9e15"><path d="M 81.269531 46.8125 L 668.519531 46.8125 L 668.519531 703.0625 L 81.269531 703.0625 Z M 81.269531 46.8125 " clip-rule="nonzero"/></clipPath></defs><g clip-path="url(#f5837e9e15)"><path fill="#0277bd" d="M 668.433594 46.8125 L 81.359375 46.8125 L 133.160156 633.980469 L 374.894531 703.0625 L 616.632812 633.980469 Z M 668.433594 46.8125 " fill-opacity="1" fill-rule="nonzero"/></g><path fill="#039be5" d="M 374.894531 98.621094 L 374.894531 649.523438 L 568.285156 594.261719 L 611.453125 98.621094 Z M 374.894531 98.621094 " fill-opacity="1" fill-rule="nonzero"/><path fill="#ffffff" d="M 532.023438 184.96875 L 374.894531 184.96875 L 374.894531 254.046875 L 459.503906 254.046875 L 454.324219 323.128906 L 374.894531 323.128906 L 374.894531 392.207031 L 450.871094 392.207031 L 445.691406 469.917969 L 374.894531 494.097656 L 374.894531 566.628906 L 511.304688 521.730469 L 523.390625 323.128906 Z M 532.023438 184.96875 " fill-opacity="1" fill-rule="nonzero"/><path fill="#eeeeee" d="M 374.894531 184.96875 L 374.894531 254.046875 L 221.21875 254.046875 L 216.039062 184.96875 Z M 295.46875 323.128906 L 298.921875 392.207031 L 374.894531 392.207031 L 374.894531 323.128906 Z M 302.375 426.746094 L 233.308594 426.746094 L 238.488281 521.730469 L 374.894531 566.628906 L 374.894531 494.097656 L 304.101562 469.917969 Z M 302.375 426.746094 " fill-opacity="1" fill-rule="nonzero"/></svg>