<svg xmlns="http://www.w3.org/2000/svg" xmlns:xlink="http://www.w3.org/1999/xlink" width="40" zoomAndPan="magnify" viewBox="0 0 30 30.000001" height="40" preserveAspectRatio="xMidYMid meet" version="1.0"><defs><clipPath id="11e67307b5"><path d="M 0.484375 0 L 29.515625 0 L 29.515625 29.03125 L 0.484375 29.03125 Z M 0.484375 0 " clip-rule="nonzero"/></clipPath></defs><g clip-path="url(#11e67307b5)"><path fill="#212529" d="M 29.515625 14.515625 C 29.515625 15.46875 29.421875 16.414062 29.238281 17.347656 C 29.050781 18.28125 28.777344 19.191406 28.410156 20.070312 C 28.046875 20.953125 27.597656 21.789062 27.070312 22.582031 C 26.539062 23.375 25.9375 24.105469 25.265625 24.78125 C 24.589844 25.453125 23.855469 26.054688 23.066406 26.585938 C 22.273438 27.117188 21.4375 27.5625 20.554688 27.925781 C 19.675781 28.292969 18.765625 28.566406 17.832031 28.753906 C 16.898438 28.9375 15.953125 29.03125 15 29.03125 C 14.046875 29.03125 13.101562 28.9375 12.167969 28.753906 C 11.234375 28.566406 10.324219 28.292969 9.445312 27.925781 C 8.5625 27.5625 7.726562 27.117188 6.933594 26.585938 C 6.144531 26.054688 5.410156 25.453125 4.734375 24.78125 C 4.0625 24.105469 3.460938 23.375 2.929688 22.582031 C 2.402344 21.789062 1.953125 20.953125 1.589844 20.070312 C 1.222656 19.191406 0.949219 18.28125 0.761719 17.347656 C 0.578125 16.414062 0.484375 15.46875 0.484375 14.515625 C 0.484375 13.5625 0.578125 12.617188 0.761719 11.683594 C 0.949219 10.75 1.222656 9.839844 1.589844 8.960938 C 1.953125 8.082031 2.402344 7.242188 2.929688 6.453125 C 3.460938 5.660156 4.0625 4.925781 4.734375 4.25 C 5.410156 3.578125 6.144531 2.976562 6.933594 2.445312 C 7.726562 1.917969 8.5625 1.46875 9.445312 1.105469 C 10.324219 0.738281 11.234375 0.464844 12.167969 0.277344 C 13.101562 0.09375 14.046875 0 15 0 C 15.953125 0 16.898438 0.09375 17.832031 0.277344 C 18.765625 0.464844 19.675781 0.738281 20.554688 1.105469 C 21.4375 1.46875 22.273438 1.917969 23.066406 2.445312 C 23.855469 2.976562 24.589844 3.578125 25.265625 4.25 C 25.9375 4.925781 26.539062 5.660156 27.070312 6.453125 C 27.597656 7.242188 28.046875 8.082031 28.410156 8.960938 C 28.777344 9.839844 29.050781 10.75 29.238281 11.683594 C 29.421875 12.617188 29.515625 13.5625 29.515625 14.515625 Z M 29.515625 14.515625 " fill-opacity="1" fill-rule="nonzero"/></g><path fill="#ffffff" d="M 24.71875 8.257812 L 18.226562 13.402344 L 24.871094 18.671875 L 24.871094 8.871094 C 24.875 8.652344 24.824219 8.449219 24.71875 8.257812 Z M 24.71875 8.257812 " fill-opacity="1" fill-rule="nonzero"/><path fill="#ffffff" d="M 5.28125 8.257812 C 5.175781 8.449219 5.125 8.652344 5.128906 8.871094 L 5.128906 18.671875 L 11.773438 13.402344 Z M 5.28125 8.257812 " fill-opacity="1" fill-rule="nonzero"/><path fill="#ffffff" d="M 15.929688 15.222656 C 15.671875 15.464844 15.363281 15.582031 15.011719 15.574219 C 14.636719 15.578125 14.3125 15.453125 14.035156 15.203125 L 12.527344 14.039062 L 5.128906 19.871094 L 5.128906 20.160156 C 5.128906 20.347656 5.164062 20.527344 5.234375 20.699219 C 5.308594 20.871094 5.410156 21.023438 5.539062 21.152344 C 5.671875 21.285156 5.824219 21.386719 5.996094 21.457031 C 6.167969 21.53125 6.347656 21.566406 6.535156 21.566406 L 23.464844 21.566406 C 23.652344 21.566406 23.832031 21.53125 24.003906 21.457031 C 24.175781 21.386719 24.328125 21.285156 24.460938 21.152344 C 24.589844 21.023438 24.691406 20.871094 24.765625 20.699219 C 24.835938 20.527344 24.871094 20.347656 24.871094 20.160156 L 24.871094 19.871094 L 17.472656 13.992188 Z M 15.929688 15.222656 " fill-opacity="1" fill-rule="nonzero"/><path fill="#ffffff" d="M 13.257812 13.402344 L 14.628906 14.492188 C 14.722656 14.585938 14.832031 14.632812 14.964844 14.632812 C 15.097656 14.632812 15.207031 14.585938 15.300781 14.492188 L 16.695312 13.332031 L 17.449219 12.738281 L 24.023438 7.523438 C 23.839844 7.441406 23.644531 7.398438 23.441406 7.398438 L 6.535156 7.398438 C 6.335938 7.398438 6.144531 7.441406 5.964844 7.523438 L 12.527344 12.773438 Z M 13.257812 13.402344 " fill-opacity="1" fill-rule="nonzero"/></svg>