<svg xmlns="http://www.w3.org/2000/svg" xmlns:xlink="http://www.w3.org/1999/xlink" width="1000" zoomAndPan="magnify" viewBox="0 0 750 749.999995" height="1000" preserveAspectRatio="xMidYMid meet" version="1.0"><defs><clipPath id="274e2111d4"><path d="M 148.019531 46.042969 L 601.769531 46.042969 L 601.769531 703.792969 L 148.019531 703.792969 Z M 148.019531 46.042969 " clip-rule="nonzero"/></clipPath></defs><rect x="-75" width="900" fill="#ffffff" y="-74.999999" height="899.999994" fill-opacity="1"/><rect x="-75" width="900" fill="#ffffff" y="-74.999999" height="899.999994" fill-opacity="1"/><g clip-path="url(#274e2111d4)"><path fill="#000000" d="M 272.964844 46.011719 C 203.984375 46.011719 148.066406 101.941406 148.066406 170.9375 C 148.066406 213.042969 168.890625 250.285156 200.804688 272.917969 C 168.890625 295.550781 148.066406 332.789062 148.066406 374.898438 C 148.066406 417.003906 168.890625 454.246094 200.808594 476.878906 C 168.890625 499.511719 148.066406 536.753906 148.066406 578.859375 C 148.066406 647.855469 203.984375 703.785156 272.964844 703.785156 C 341.945312 703.785156 397.863281 647.855469 397.863281 578.859375 L 397.863281 471.648438 C 419.390625 489.261719 446.90625 499.824219 476.882812 499.824219 C 545.863281 499.824219 601.785156 443.894531 601.785156 374.898438 C 601.785156 332.789062 580.957031 295.550781 549.042969 272.917969 C 580.957031 250.285156 601.785156 213.042969 601.785156 170.9375 C 601.785156 101.941406 545.863281 46.011719 476.882812 46.011719 Z M 351.984375 453.933594 L 272.964844 453.933594 C 229.324219 453.933594 193.945312 418.546875 193.945312 374.898438 C 193.945312 331.246094 229.324219 295.863281 272.964844 295.863281 L 351.984375 295.863281 Z M 272.964844 249.972656 L 351.984375 249.972656 L 351.984375 91.902344 L 272.964844 91.902344 C 229.324219 91.902344 193.945312 127.285156 193.945312 170.9375 C 193.945312 214.585938 229.324219 249.972656 272.964844 249.972656 Z M 555.902344 170.9375 C 555.902344 214.558594 520.570312 249.925781 476.96875 249.972656 L 397.863281 249.972656 L 397.863281 91.902344 L 476.882812 91.902344 C 520.523438 91.902344 555.902344 127.285156 555.902344 170.9375 Z M 397.863281 374.800781 C 397.917969 331.226562 433.222656 295.914062 476.785156 295.863281 L 476.960938 295.863281 C 520.566406 295.90625 555.902344 331.273438 555.902344 374.898438 C 555.902344 418.546875 520.523438 453.933594 476.882812 453.933594 C 433.277344 453.933594 397.917969 418.597656 397.863281 374.996094 Z M 272.964844 499.824219 C 229.324219 499.824219 193.945312 535.207031 193.945312 578.859375 C 193.945312 622.507812 229.324219 657.894531 272.964844 657.894531 C 316.605469 657.894531 351.984375 622.507812 351.984375 578.859375 L 351.984375 499.824219 Z M 272.964844 499.824219 " fill-opacity="1" fill-rule="evenodd"/></g></svg>