<svg xmlns="http://www.w3.org/2000/svg" xmlns:xlink="http://www.w3.org/1999/xlink" width="1000" zoomAndPan="magnify" viewBox="0 0 750 749.999995" height="1000" preserveAspectRatio="xMidYMid meet" version="1.0"><defs><clipPath id="a7f57afdf5"><path d="M 47.386719 47.386719 L 702.886719 47.386719 L 702.886719 702.886719 L 47.386719 702.886719 Z M 47.386719 47.386719 " clip-rule="nonzero"/></clipPath></defs><rect x="-75" width="900" fill="#ffffff" y="-74.999999" height="899.999994" fill-opacity="1"/><rect x="-75" width="900" fill="#ffffff" y="-74.999999" height="899.999994" fill-opacity="1"/><g clip-path="url(#a7f57afdf5)"><path fill="#f03c2e" d="M 690.515625 345.945312 L 404.328125 59.757812 C 403.351562 58.78125 402.328125 57.855469 401.257812 56.976562 C 400.191406 56.101562 399.082031 55.277344 397.933594 54.507812 C 396.78125 53.742188 395.597656 53.03125 394.378906 52.378906 C 393.160156 51.726562 391.910156 51.136719 390.636719 50.605469 C 389.359375 50.078125 388.058594 49.613281 386.734375 49.210938 C 385.410156 48.808594 384.074219 48.472656 382.714844 48.203125 C 381.359375 47.933594 379.996094 47.730469 378.617188 47.597656 C 377.242188 47.460938 375.863281 47.394531 374.480469 47.394531 C 373.097656 47.394531 371.71875 47.460938 370.34375 47.597656 C 368.96875 47.730469 367.601562 47.933594 366.246094 48.203125 C 364.890625 48.472656 363.550781 48.808594 362.226562 49.210938 C 360.90625 49.613281 359.605469 50.078125 358.328125 50.605469 C 357.050781 51.136719 355.804688 51.726562 354.585938 52.378906 C 353.363281 53.03125 352.179688 53.742188 351.03125 54.507812 C 349.882812 55.277344 348.773438 56.101562 347.703125 56.976562 C 346.636719 57.855469 345.613281 58.78125 344.636719 59.757812 L 285.230469 119.164062 L 360.613281 194.546875 C 378.148438 188.402344 398.222656 192.601562 412.195312 206.570312 C 413.847656 208.230469 415.378906 209.992188 416.785156 211.863281 C 418.195312 213.738281 419.464844 215.695312 420.597656 217.746094 C 421.730469 219.796875 422.714844 221.914062 423.550781 224.101562 C 424.386719 226.289062 425.066406 228.523438 425.589844 230.808594 C 426.113281 233.089844 426.476562 235.398438 426.675781 237.730469 C 426.878906 240.0625 426.914062 242.398438 426.789062 244.738281 C 426.660156 247.074219 426.371094 249.394531 425.921875 251.691406 C 425.46875 253.988281 424.863281 256.246094 424.09375 258.457031 L 496.753906 331.117188 C 514.328125 325.054688 534.609375 328.964844 548.640625 343.039062 C 549.804688 344.203125 550.910156 345.417969 551.953125 346.691406 C 552.996094 347.964844 553.976562 349.285156 554.890625 350.652344 C 555.808594 352.019531 556.652344 353.429688 557.429688 354.882812 C 558.203125 356.332031 558.910156 357.820312 559.539062 359.339844 C 560.167969 360.859375 560.722656 362.40625 561.199219 363.980469 C 561.679688 365.558594 562.078125 367.152344 562.398438 368.765625 C 562.722656 370.378906 562.964844 372.007812 563.125 373.644531 C 563.285156 375.28125 563.367188 376.925781 563.367188 378.570312 C 563.367188 380.214844 563.285156 381.859375 563.125 383.496094 C 562.964844 385.132812 562.722656 386.761719 562.402344 388.375 C 562.082031 389.988281 561.679688 391.582031 561.203125 393.160156 C 560.726562 394.734375 560.171875 396.28125 559.542969 397.800781 C 558.914062 399.324219 558.210938 400.808594 557.433594 402.261719 C 556.65625 403.710938 555.8125 405.121094 554.898438 406.492188 C 553.984375 407.859375 553.003906 409.179688 551.960938 410.453125 C 550.914062 411.722656 549.8125 412.941406 548.648438 414.105469 C 547.484375 415.269531 546.265625 416.375 544.992188 417.417969 C 543.71875 418.460938 542.398438 419.441406 541.03125 420.355469 C 539.660156 421.269531 538.25 422.113281 536.800781 422.890625 C 535.347656 423.664062 533.863281 424.367188 532.339844 424.996094 C 530.820312 425.625 529.273438 426.179688 527.695312 426.65625 C 526.121094 427.132812 524.527344 427.53125 522.914062 427.851562 C 521.296875 428.175781 519.671875 428.414062 518.035156 428.574219 C 516.394531 428.734375 514.753906 428.816406 513.109375 428.816406 C 511.460938 428.816406 509.820312 428.734375 508.183594 428.570312 C 506.542969 428.410156 504.917969 428.167969 503.304688 427.847656 C 501.6875 427.523438 500.09375 427.125 498.519531 426.644531 C 496.945312 426.167969 495.398438 425.613281 493.878906 424.980469 C 492.355469 424.351562 490.871094 423.648438 489.421875 422.871094 C 487.96875 422.09375 486.558594 421.246094 485.191406 420.332031 C 483.824219 419.417969 482.503906 418.4375 481.230469 417.390625 C 479.960938 416.347656 478.742188 415.242188 477.578125 414.078125 C 462.832031 399.328125 459.183594 377.617188 466.640625 359.445312 L 398.878906 291.683594 L 398.878906 470 C 403.828125 472.449219 408.269531 475.617188 412.195312 479.503906 C 413.355469 480.667969 414.460938 481.886719 415.503906 483.15625 C 416.546875 484.429688 417.527344 485.75 418.441406 487.117188 C 419.355469 488.484375 420.199219 489.894531 420.976562 491.34375 C 421.75 492.796875 422.453125 494.28125 423.082031 495.800781 C 423.710938 497.320312 424.265625 498.867188 424.742188 500.441406 C 425.222656 502.015625 425.621094 503.613281 425.941406 505.226562 C 426.261719 506.839844 426.503906 508.464844 426.664062 510.101562 C 426.824219 511.738281 426.90625 513.378906 426.90625 515.023438 C 426.90625 516.671875 426.824219 518.3125 426.664062 519.949219 C 426.503906 521.585938 426.261719 523.210938 425.941406 524.824219 C 425.621094 526.4375 425.222656 528.03125 424.742188 529.605469 C 424.265625 531.179688 423.710938 532.726562 423.082031 534.25 C 422.453125 535.769531 421.75 537.253906 420.976562 538.703125 C 420.199219 540.15625 419.355469 541.566406 418.441406 542.933594 C 417.527344 544.300781 416.546875 545.621094 415.503906 546.890625 C 414.460938 548.164062 413.355469 549.382812 412.195312 550.542969 C 411.03125 551.707031 409.8125 552.8125 408.539062 553.855469 C 407.269531 554.898438 405.949219 555.878906 404.582031 556.792969 C 403.214844 557.707031 401.804688 558.550781 400.351562 559.328125 C 398.902344 560.101562 397.417969 560.804688 395.898438 561.433594 C 394.375 562.0625 392.828125 562.617188 391.253906 563.09375 C 389.679688 563.570312 388.085938 563.972656 386.472656 564.292969 C 384.859375 564.613281 383.234375 564.855469 381.597656 565.015625 C 379.960938 565.175781 378.320312 565.257812 376.671875 565.257812 C 375.027344 565.257812 373.386719 565.175781 371.75 565.015625 C 370.113281 564.855469 368.488281 564.613281 366.875 564.292969 C 365.261719 563.972656 363.667969 563.570312 362.089844 563.09375 C 360.515625 562.617188 358.96875 562.0625 357.449219 561.433594 C 355.929688 560.804688 354.445312 560.101562 352.992188 559.328125 C 351.542969 558.550781 350.132812 557.707031 348.765625 556.792969 C 347.398438 555.878906 346.078125 554.898438 344.804688 553.855469 C 343.535156 552.8125 342.316406 551.707031 341.152344 550.542969 C 339.988281 549.382812 338.882812 548.164062 337.839844 546.894531 C 336.792969 545.621094 335.8125 544.304688 334.898438 542.9375 C 333.984375 541.566406 333.136719 540.160156 332.359375 538.707031 C 331.585938 537.257812 330.882812 535.773438 330.25 534.25 C 329.621094 532.730469 329.066406 531.183594 328.585938 529.609375 C 328.109375 528.035156 327.710938 526.441406 327.386719 524.828125 C 327.066406 523.214844 326.824219 521.585938 326.664062 519.949219 C 326.503906 518.3125 326.421875 516.671875 326.421875 515.023438 C 326.421875 513.378906 326.503906 511.738281 326.664062 510.101562 C 326.824219 508.460938 327.066406 506.835938 327.386719 505.222656 C 327.710938 503.609375 328.109375 502.015625 328.585938 500.441406 C 329.066406 498.867188 329.621094 497.316406 330.25 495.796875 C 330.882812 494.277344 331.585938 492.792969 332.359375 491.339844 C 333.136719 489.890625 333.984375 488.480469 334.898438 487.113281 C 335.8125 485.746094 336.792969 484.425781 337.839844 483.15625 C 338.882812 481.882812 339.988281 480.667969 341.152344 479.503906 C 346.007812 474.671875 351.394531 471.003906 357.601562 468.546875 L 357.601562 288.570312 C 351.621094 286.113281 346.007812 282.488281 341.152344 277.609375 C 339.398438 275.859375 337.785156 273.988281 336.308594 271.996094 C 334.832031 270.007812 333.511719 267.917969 332.34375 265.730469 C 331.175781 263.542969 330.175781 261.285156 329.34375 258.949219 C 328.511719 256.613281 327.855469 254.230469 327.378906 251.800781 C 326.898438 249.367188 326.601562 246.914062 326.488281 244.4375 C 326.371094 241.960938 326.4375 239.492188 326.691406 237.027344 C 326.941406 234.558594 327.371094 232.125 327.984375 229.722656 C 328.59375 227.320312 329.378906 224.976562 330.335938 222.691406 L 255.980469 148.375 L 59.738281 344.410156 C 58.761719 345.386719 57.832031 346.410156 56.953125 347.480469 C 56.078125 348.546875 55.253906 349.65625 54.484375 350.808594 C 53.714844 351.957031 53.003906 353.140625 52.351562 354.359375 C 51.699219 355.582031 51.109375 356.828125 50.578125 358.105469 C 50.050781 359.382812 49.582031 360.683594 49.183594 362.007812 C 48.78125 363.332031 48.445312 364.671875 48.175781 366.027344 C 47.902344 367.382812 47.703125 368.75 47.566406 370.128906 C 47.429688 371.503906 47.363281 372.882812 47.363281 374.265625 C 47.363281 375.648438 47.429688 377.03125 47.566406 378.40625 C 47.703125 379.78125 47.902344 381.148438 48.175781 382.503906 C 48.445312 383.863281 48.78125 385.203125 49.183594 386.523438 C 49.582031 387.847656 50.050781 389.148438 50.578125 390.425781 C 51.109375 391.703125 51.699219 392.953125 52.351562 394.171875 C 53.003906 395.390625 53.714844 396.578125 54.484375 397.726562 C 55.253906 398.875 56.078125 399.984375 56.953125 401.054688 C 57.832031 402.121094 58.761719 403.144531 59.738281 404.121094 L 345.945312 690.289062 C 346.925781 691.265625 347.945312 692.195312 349.015625 693.070312 C 350.085938 693.949219 351.191406 694.773438 352.34375 695.539062 C 353.492188 696.308594 354.675781 697.019531 355.894531 697.671875 C 357.113281 698.320312 358.363281 698.914062 359.640625 699.441406 C 360.917969 699.972656 362.214844 700.4375 363.539062 700.839844 C 364.863281 701.238281 366.203125 701.574219 367.558594 701.84375 C 368.914062 702.113281 370.28125 702.316406 371.65625 702.453125 C 373.03125 702.589844 374.410156 702.65625 375.792969 702.65625 C 377.175781 702.65625 378.554688 702.589844 379.929688 702.453125 C 381.304688 702.316406 382.671875 702.113281 384.027344 701.84375 C 385.382812 701.574219 386.722656 701.238281 388.046875 700.835938 C 389.367188 700.4375 390.667969 699.972656 391.945312 699.441406 C 393.222656 698.914062 394.472656 698.320312 395.691406 697.671875 C 396.910156 697.019531 398.09375 696.308594 399.242188 695.539062 C 400.390625 694.773438 401.5 693.949219 402.570312 693.070312 C 403.636719 692.195312 404.660156 691.265625 405.636719 690.289062 L 690.515625 405.863281 C 691.492188 404.886719 692.421875 403.863281 693.300781 402.792969 C 694.175781 401.726562 695 400.617188 695.769531 399.46875 C 696.539062 398.316406 697.25 397.132812 697.902344 395.914062 C 698.554688 394.695312 699.144531 393.445312 699.675781 392.167969 C 700.203125 390.890625 700.671875 389.589844 701.070312 388.265625 C 701.472656 386.941406 701.808594 385.601562 702.078125 384.246094 C 702.351562 382.890625 702.550781 381.523438 702.6875 380.148438 C 702.824219 378.769531 702.890625 377.390625 702.890625 376.007812 C 702.890625 374.625 702.824219 373.246094 702.6875 371.867188 C 702.550781 370.492188 702.351562 369.125 702.078125 367.769531 C 701.808594 366.414062 701.472656 365.074219 701.070312 363.75 C 700.671875 362.425781 700.203125 361.125 699.675781 359.847656 C 699.144531 358.570312 698.554688 357.320312 697.902344 356.101562 C 697.25 354.882812 696.539062 353.699219 695.769531 352.546875 C 695 351.398438 694.175781 350.289062 693.300781 349.222656 C 692.421875 348.152344 691.492188 347.128906 690.515625 346.152344 " fill-opacity="1" fill-rule="nonzero"/></g></svg>