<svg xmlns="http://www.w3.org/2000/svg" xmlns:xlink="http://www.w3.org/1999/xlink" width="40" zoomAndPan="magnify" viewBox="0 0 30 30.000001" height="40" preserveAspectRatio="xMidYMid meet" version="1.0"><defs><clipPath id="d9ca9c7168"><path d="M 1.132812 1.296875 L 28.867188 1.296875 L 28.867188 29.03125 L 1.132812 29.03125 Z M 1.132812 1.296875 " clip-rule="nonzero"/></clipPath><clipPath id="70c017b53f"><path d="M 15 1.296875 C 7.339844 1.296875 1.132812 7.507812 1.132812 15.164062 C 1.132812 22.824219 7.339844 29.03125 15 29.03125 C 22.660156 29.03125 28.867188 22.824219 28.867188 15.164062 C 28.867188 7.507812 22.660156 1.296875 15 1.296875 Z M 15 1.296875 " clip-rule="nonzero"/></clipPath><clipPath id="0ce9b1a2b3"><path d="M 0.484375 0.0664062 L 29.515625 0.0664062 L 29.515625 29 L 0.484375 29 Z M 0.484375 0.0664062 " clip-rule="nonzero"/></clipPath></defs><g clip-path="url(#d9ca9c7168)"><g clip-path="url(#70c017b53f)"><path fill="#ffffff" d="M 1.132812 1.296875 L 28.867188 1.296875 L 28.867188 29.03125 L 1.132812 29.03125 Z M 1.132812 1.296875 " fill-opacity="1" fill-rule="nonzero"/></g></g><g clip-path="url(#0ce9b1a2b3)"><path fill="#212529" d="M 13.285156 0.902344 C 6.753906 1.625 1.429688 6.898438 0.640625 13.421875 C 0.539062 14.242188 0.507812 15.066406 0.546875 15.894531 C 0.585938 16.71875 0.695312 17.535156 0.875 18.34375 C 1.054688 19.152344 1.300781 19.9375 1.617188 20.703125 C 1.929688 21.46875 2.308594 22.199219 2.75 22.902344 C 3.191406 23.601562 3.6875 24.257812 4.242188 24.875 C 4.796875 25.488281 5.398438 26.050781 6.046875 26.5625 C 6.699219 27.074219 7.386719 27.527344 8.117188 27.917969 C 8.84375 28.3125 9.601562 28.640625 10.382812 28.902344 C 11.105469 29.015625 11.335938 28.570312 11.335938 28.183594 L 11.335938 25.746094 C 7.34375 26.613281 6.496094 23.816406 6.496094 23.816406 C 5.835938 22.144531 4.894531 21.699219 4.894531 21.699219 C 3.585938 20.804688 5 20.835938 5 20.835938 C 6.4375 20.9375 7.203125 22.320312 7.203125 22.320312 C 8.457031 24.507812 10.574219 23.859375 11.394531 23.515625 C 11.523438 22.578125 11.902344 21.945312 12.300781 21.582031 C 9.097656 21.222656 5.746094 19.984375 5.746094 14.496094 C 5.746094 12.898438 6.292969 11.617188 7.230469 10.59375 C 7.085938 10.234375 6.582031 8.734375 7.375 6.789062 C 7.375 6.789062 8.585938 6.398438 11.335938 8.257812 C 13.738281 7.613281 16.136719 7.613281 18.539062 8.257812 C 21.292969 6.398438 22.5 6.789062 22.5 6.789062 C 23.292969 8.734375 22.789062 10.234375 22.644531 10.59375 C 23.582031 11.613281 24.128906 12.898438 24.128906 14.496094 C 24.128906 20 20.757812 21.210938 17.542969 21.570312 C 18.0625 22.015625 18.539062 22.894531 18.539062 24.234375 L 18.539062 28.183594 C 18.539062 28.570312 18.769531 29.03125 19.503906 28.902344 C 20.339844 28.621094 21.144531 28.265625 21.917969 27.839844 C 22.691406 27.410156 23.417969 26.914062 24.097656 26.351562 C 24.78125 25.789062 25.40625 25.171875 25.972656 24.492188 C 26.539062 23.816406 27.042969 23.09375 27.476562 22.324219 C 27.910156 21.554688 28.269531 20.753906 28.558594 19.917969 C 28.847656 19.082031 29.054688 18.230469 29.183594 17.355469 C 29.316406 16.480469 29.363281 15.605469 29.332031 14.722656 C 29.300781 13.839844 29.191406 12.964844 29 12.101562 C 28.808594 11.242188 28.539062 10.402344 28.195312 9.589844 C 27.847656 8.777344 27.433594 8.003906 26.945312 7.265625 C 26.457031 6.53125 25.90625 5.84375 25.292969 5.210938 C 24.679688 4.574219 24.011719 4 23.292969 3.488281 C 22.574219 2.972656 21.8125 2.53125 21.011719 2.160156 C 20.210938 1.785156 19.382812 1.488281 18.527344 1.269531 C 17.671875 1.046875 16.804688 0.90625 15.925781 0.84375 C 15.042969 0.78125 14.164062 0.800781 13.285156 0.902344 Z M 13.285156 0.902344 " fill-opacity="1" fill-rule="nonzero"/></g></svg>