<svg xmlns="http://www.w3.org/2000/svg" xmlns:xlink="http://www.w3.org/1999/xlink" width="40" zoomAndPan="magnify" viewBox="0 0 30 30.000001" height="40" preserveAspectRatio="xMidYMid meet" version="1.0"><defs><clipPath id="61db733425"><path d="M 5.21875 0 L 24.816406 0 L 24.816406 29.03125 L 5.21875 29.03125 Z M 5.21875 0 " clip-rule="nonzero"/></clipPath></defs><g clip-path="url(#61db733425)"><path fill="#171514" d="M 15.019531 14.914062 C 12.160156 14.914062 9.847656 12.601562 9.847656 9.753906 C 9.847656 6.902344 12.160156 4.589844 15.019531 4.589844 C 17.875 4.589844 20.191406 6.902344 20.191406 9.753906 C 20.191406 12.601562 17.875 14.914062 15.019531 14.914062 Z M 15.019531 0.0078125 C 9.605469 0.0078125 5.21875 4.386719 5.21875 9.785156 C 5.21875 12.304688 5.941406 14.777344 7.296875 16.902344 L 15.019531 29.023438 L 22.742188 16.902344 C 24.097656 14.777344 24.816406 12.304688 24.816406 9.785156 C 24.816406 4.386719 20.429688 0.0078125 15.019531 0.0078125 " fill-opacity="1" fill-rule="nonzero"/></g></svg>