<svg xmlns="http://www.w3.org/2000/svg" xmlns:xlink="http://www.w3.org/1999/xlink" width="40" zoomAndPan="magnify" viewBox="0 0 30 30.000001" height="40" preserveAspectRatio="xMidYMid meet" version="1.0"><defs><clipPath id="3ac062b045"><path d="M 0.484375 0 L 29.515625 0 L 29.515625 29.03125 L 0.484375 29.03125 Z M 0.484375 0 " clip-rule="nonzero"/></clipPath></defs><g clip-path="url(#3ac062b045)"><path fill="#212529" d="M 29.515625 14.515625 C 29.515625 22.53125 23.015625 29.03125 15 29.03125 C 6.984375 29.03125 0.484375 22.53125 0.484375 14.515625 C 0.484375 6.5 6.984375 0 15 0 C 23.015625 0 29.515625 6.5 29.515625 14.515625 " fill-opacity="1" fill-rule="nonzero"/></g><path fill="#ffffff" d="M 15 25.617188 C 15 25.617188 7.585938 14.964844 7.582031 10.828125 C 7.582031 7.097656 10.902344 3.410156 15 3.410156 C 19.09375 3.410156 22.417969 6.601562 22.414062 10.828125 C 22.410156 14.964844 15 25.617188 15 25.617188 " fill-opacity="1" fill-rule="nonzero"/><path fill="#212529" d="M 18.605469 10.339844 C 18.605469 12.332031 16.992188 13.949219 15 13.949219 C 13.007812 13.949219 11.394531 12.332031 11.394531 10.339844 C 11.394531 8.351562 13.007812 6.734375 15 6.734375 C 16.992188 6.734375 18.605469 8.351562 18.605469 10.339844 " fill-opacity="1" fill-rule="nonzero"/></svg>