<svg xmlns="http://www.w3.org/2000/svg" xmlns:xlink="http://www.w3.org/1999/xlink" width="1000" zoomAndPan="magnify" viewBox="0 0 750 749.999995" height="1000" preserveAspectRatio="xMidYMid meet" version="1.0"><defs><clipPath id="2950874024"><path d="M 87.164062 49 L 663 49 L 663 701 L 87.164062 701 Z M 87.164062 49 " clip-rule="nonzero"/></clipPath></defs><rect x="-75" width="900" fill="#ffffff" y="-74.999999" height="899.999994" fill-opacity="1"/><rect x="-75" width="900" fill="#ffffff" y="-74.999999" height="899.999994" fill-opacity="1"/><g clip-path="url(#2950874024)"><path fill="#e44d26" d="M 140.007812 635.566406 L 87.679688 49.140625 L 662.648438 49.140625 L 610.261719 635.457031 L 374.808594 700.695312 Z M 140.007812 635.566406 " fill-opacity="1" fill-rule="nonzero"/></g><path fill="#f16529" d="M 375.164062 650.851562 L 565.433594 598.15625 L 610.183594 97.085938 L 375.164062 97.085938 Z M 375.164062 650.851562 " fill-opacity="1" fill-rule="nonzero"/><path fill="#ebebeb" d="M 375.164062 314.59375 L 279.90625 314.59375 L 273.332031 240.941406 L 375.164062 240.941406 L 375.164062 169.027344 L 194.671875 169.027344 L 196.386719 188.300781 L 214.074219 386.511719 L 375.164062 386.511719 Z M 375.164062 501.375 L 374.835938 501.457031 L 294.6875 479.816406 L 289.550781 422.453125 L 217.304688 422.453125 L 227.386719 535.390625 L 374.835938 576.273438 L 375.164062 576.195312 Z M 375.164062 501.375 " fill-opacity="1" fill-rule="nonzero"/><path fill="#ffffff" d="M 374.917969 314.59375 L 374.917969 386.511719 L 463.546875 386.511719 L 455.179688 479.792969 L 374.890625 501.429688 L 374.890625 576.25 L 522.449219 535.390625 L 523.539062 523.226562 L 540.464844 333.871094 L 542.230469 314.566406 L 522.832031 314.566406 Z M 374.917969 169.027344 L 374.917969 240.941406 L 548.777344 240.941406 L 550.21875 224.761719 L 553.503906 188.300781 L 555.21875 169 Z M 374.917969 169.027344 " fill-opacity="1" fill-rule="nonzero"/></svg>