<svg xmlns="http://www.w3.org/2000/svg" xmlns:xlink="http://www.w3.org/1999/xlink" width="1000" zoomAndPan="magnify" viewBox="0 0 750 749.999995" height="1000" preserveAspectRatio="xMidYMid meet" version="1.0"><defs><clipPath id="8e8a33fdad"><path d="M 47.195312 47.195312 L 702.695312 47.195312 L 702.695312 702.695312 L 47.195312 702.695312 Z M 47.195312 47.195312 " clip-rule="nonzero"/></clipPath></defs><g clip-path="url(#8e8a33fdad)"><path fill="#ffd600" d="M 47.195312 47.195312 L 702.695312 47.195312 L 702.695312 702.695312 L 47.195312 702.695312 Z M 47.195312 47.195312 " fill-opacity="1" fill-rule="nonzero"/></g><path fill="#000001" d="M 475.78125 537.855469 C 488.382812 558.320312 502.074219 577.933594 531.082031 577.933594 C 555.445312 577.933594 568.226562 565.824219 568.226562 549.070312 C 568.226562 529.023438 555.007812 521.90625 528.203125 510.234375 L 513.511719 503.96875 C 471.101562 485.980469 442.898438 463.4375 442.898438 415.824219 C 442.898438 371.941406 476.492188 338.546875 528.988281 338.546875 C 566.371094 338.546875 593.226562 351.492188 612.601562 385.398438 L 566.824219 414.65625 C 556.753906 396.667969 545.867188 389.585938 528.988281 389.585938 C 511.761719 389.585938 500.855469 400.453125 500.855469 414.65625 C 500.855469 432.210938 511.78125 439.3125 537 450.183594 L 551.695312 456.445312 C 601.675781 477.730469 629.863281 499.472656 629.863281 548.34375 C 629.863281 601 588.273438 629.863281 532.449219 629.863281 C 477.839844 629.863281 446.832031 602.457031 429.570312 568.535156 Z M 264.820312 539.347656 C 274.035156 555.84375 288.035156 568.535156 308.175781 568.535156 C 327.441406 568.535156 338.527344 560.925781 338.527344 531.335938 L 338.527344 338.527344 L 399.21875 338.527344 L 399.21875 540.660156 C 399.21875 601.964844 363.65625 629.863281 311.726562 629.863281 C 264.804688 629.863281 230.933594 598.070312 217.132812 568.535156 Z M 264.820312 539.347656 " fill-opacity="1" fill-rule="nonzero"/></svg>