<svg xmlns="http://www.w3.org/2000/svg" xmlns:xlink="http://www.w3.org/1999/xlink" width="40" zoomAndPan="magnify" viewBox="0 0 30 30.000001" height="40" preserveAspectRatio="xMidYMid meet" version="1.0"><defs><clipPath id="0f4e3f1034"><path d="M 0.484375 0 L 29.515625 0 L 29.515625 29.03125 L 0.484375 29.03125 Z M 0.484375 0 " clip-rule="nonzero"/></clipPath><clipPath id="e25093448d"><path d="M 15 0 C 6.984375 0 0.484375 6.5 0.484375 14.515625 C 0.484375 22.53125 6.984375 29.03125 15 29.03125 C 23.015625 29.03125 29.515625 22.53125 29.515625 14.515625 C 29.515625 6.5 23.015625 0 15 0 Z M 15 0 " clip-rule="nonzero"/></clipPath><clipPath id="0e5579742d"><path d="M 6.269531 4.027344 L 20.058594 4.027344 L 20.058594 25 L 6.269531 25 Z M 6.269531 4.027344 " clip-rule="nonzero"/></clipPath></defs><g clip-path="url(#0f4e3f1034)"><g clip-path="url(#e25093448d)"><path fill="#ffffff" d="M 0.484375 0 L 29.515625 0 L 29.515625 29.03125 L 0.484375 29.03125 Z M 0.484375 0 " fill-opacity="1" fill-rule="nonzero"/></g></g><g clip-path="url(#0e5579742d)"><path fill="#212529" d="M 19.773438 4.035156 L 16.515625 4.035156 C 16.257812 4.035156 16.050781 4.246094 16.050781 4.503906 L 16.050781 18.375 C 16.050781 19.886719 14.890625 21.207031 13.378906 21.265625 C 11.78125 21.328125 10.460938 20.058594 10.460938 18.472656 C 10.460938 18.21875 10.25 18.007812 9.996094 18.007812 L 6.734375 18.007812 C 6.472656 18.007812 6.269531 18.222656 6.269531 18.484375 C 6.273438 22.074219 9.40625 24.996094 13.253906 24.996094 C 17.105469 24.996094 20.242188 22.070312 20.242188 18.472656 L 20.242188 4.503906 C 20.242188 4.246094 20.03125 4.035156 19.773438 4.035156 Z M 19.773438 4.035156 " fill-opacity="1" fill-rule="nonzero"/></g></svg>