<svg xmlns="http://www.w3.org/2000/svg" xmlns:xlink="http://www.w3.org/1999/xlink" width="1000" zoomAndPan="magnify" viewBox="0 0 750 749.999995" height="1000" preserveAspectRatio="xMidYMid meet" version="1.0"><path fill="#01ec64" d="M 431.847656 121.179688 C 404.398438 88.621094 380.765625 55.550781 375.9375 48.683594 C 375.820312 48.5625 375.683594 48.46875 375.53125 48.402344 C 375.378906 48.335938 375.214844 48.304688 375.046875 48.304688 C 374.878906 48.304688 374.714844 48.335938 374.5625 48.402344 C 374.410156 48.46875 374.273438 48.5625 374.15625 48.683594 C 369.328125 55.550781 345.691406 88.621094 318.246094 121.179688 C 82.65625 421.578125 355.351562 624.308594 355.351562 624.308594 L 357.636719 625.835938 C 359.671875 657.121094 364.753906 702.148438 364.753906 702.148438 L 385.085938 702.148438 C 385.085938 702.148438 390.167969 657.375 392.199219 625.835938 L 394.488281 624.054688 C 394.742188 624.3125 667.4375 421.582031 431.847656 121.179688 Z M 374.917969 619.730469 C 374.917969 619.730469 362.71875 609.304688 359.417969 603.960938 L 359.417969 603.449219 L 374.15625 276.339844 C 374.15625 275.324219 375.683594 275.324219 375.683594 276.339844 L 390.421875 603.449219 L 390.421875 603.960938 C 387.117188 609.304688 374.917969 619.730469 374.917969 619.730469 Z M 374.917969 619.730469 " fill-opacity="1" fill-rule="nonzero"/></svg>