<svg xmlns="http://www.w3.org/2000/svg" xmlns:xlink="http://www.w3.org/1999/xlink" width="1000" zoomAndPan="magnify" viewBox="0 0 750 749.999995" height="1000" preserveAspectRatio="xMidYMid meet" version="1.0"><defs><clipPath id="7a9260fd5b"><path d="M 88 48 L 662 48 L 662 703.792969 L 88 703.792969 Z M 88 48 " clip-rule="nonzero"/></clipPath></defs><rect x="-75" width="900" fill="#ffffff" y="-74.999999" height="899.999994" fill-opacity="1"/><rect x="-75" width="900" fill="#ffffff" y="-74.999999" height="899.999994" fill-opacity="1"/><g clip-path="url(#7a9260fd5b)"><path fill="#8cc03e" d="M 304.527344 622.652344 C 287.703125 632.394531 284.507812 633.542969 268.691406 639.136719 C 264.867188 640.445312 259.078125 642.765625 270.875 649.535156 L 350.089844 696.96875 C 357.652344 701.417969 366.394531 703.738281 375 703.738281 L 375.054688 703.792969 C 383.765625 703.792969 392.371094 701.445312 399.9375 697.023438 L 637.082031 558.460938 C 652.484375 549.371094 661.992188 532.585938 661.992188 514.65625 L 661.992188 237.691406 C 661.992188 219.625 652.511719 202.839844 637.082031 193.886719 L 399.9375 55.1875 C 385.050781 46.617188 365.136719 46.617188 350.117188 55.1875 L 113.246094 193.75 C 97.867188 202.730469 88.363281 219.625 88.363281 237.554688 L 88.363281 514.519531 C 88.363281 532.585938 97.839844 549.371094 113.246094 558.324219 L 175.386719 594.597656 C 205.429688 609.6875 216.191406 609.6875 229.933594 609.6875 C 274.480469 609.6875 300.15625 582.394531 300.15625 534.824219 L 300.15625 261.246094 C 300.15625 257.371094 296.960938 254.367188 293.21875 254.367188 L 263.171875 254.367188 C 259.324219 254.367188 256.234375 257.34375 256.234375 261.246094 L 256.234375 534.6875 C 256.234375 555.867188 234.65625 576.800781 199.339844 559.007812 L 134.386719 521.042969 C 132.121094 519.867188 130.699219 517.277344 130.699219 514.65625 L 130.699219 237.691406 C 130.699219 234.988281 132.121094 232.371094 134.414062 231.058594 L 371.285156 92.496094 C 373.441406 91.183594 376.417969 91.183594 378.605469 92.496094 L 615.613281 230.921875 C 617.90625 232.34375 619.328125 234.824219 619.328125 237.554688 L 619.328125 514.65625 C 619.328125 517.222656 617.933594 519.839844 615.75 521.152344 L 378.605469 659.714844 C 376.554688 661.027344 373.46875 661.027344 371.285156 659.714844 L 310.425781 623.199219 C 308.625 622.023438 306.332031 621.617188 304.527344 622.652344 Z M 304.527344 622.652344 " fill-opacity="1" fill-rule="nonzero"/></g><path fill="#8cc03e" d="M 448.203125 470.960938 C 385.433594 470.960938 371.667969 454.96875 367.078125 423.390625 C 366.558594 420.003906 363.746094 417.550781 360.277344 417.550781 L 329.601562 417.550781 C 325.75 417.550781 322.800781 420.660156 322.800781 424.425781 C 322.800781 464.847656 344.488281 513.074219 448.339844 513.074219 C 523.289062 512.9375 566.472656 482.941406 566.472656 430.675781 L 566.390625 430.703125 C 566.390625 378.847656 531.730469 365.066406 458.9375 355.320312 C 385.242188 345.441406 377.8125 340.367188 377.8125 322.953125 C 377.8125 308.542969 384.121094 289.300781 438.667969 289.300781 C 487.34375 289.300781 505.316406 299.945312 512.746094 333.214844 C 513.375 336.355469 516.214844 338.671875 519.4375 338.671875 L 550.25 338.671875 C 552.160156 338.671875 553.964844 337.910156 555.246094 336.464844 C 556.53125 335.015625 557.160156 333.078125 557.050781 331.140625 C 552.296875 273.828125 514.683594 247.1875 438.667969 247.1875 C 371.011719 247.1875 330.695312 276.066406 330.695312 324.507812 C 330.695312 377.019531 370.875 391.59375 435.71875 398.0625 C 513.402344 405.757812 519.410156 417.304688 519.410156 432.777344 C 519.464844 459.550781 498.160156 470.960938 448.203125 470.960938 Z M 448.203125 470.960938 " fill-opacity="1" fill-rule="nonzero"/></svg>