<svg xmlns="http://www.w3.org/2000/svg" xmlns:xlink="http://www.w3.org/1999/xlink" width="1000" zoomAndPan="magnify" viewBox="0 0 750 749.999995" height="1000" preserveAspectRatio="xMidYMid meet" version="1.0"><defs><clipPath id="c6926b4d9c"><path d="M 64 46.042969 L 689 46.042969 L 689 697 L 64 697 Z M 64 46.042969 " clip-rule="nonzero"/></clipPath></defs><path fill="#000000" d="M 646.496094 450.558594 C 646.496094 450.59375 646.476562 450.613281 646.441406 450.613281 C 646.402344 450.613281 646.386719 450.59375 646.386719 450.558594 C 646.386719 450.523438 646.402344 450.503906 646.441406 450.503906 C 646.476562 450.503906 646.496094 450.523438 646.496094 450.558594 Z M 646.496094 450.558594 " fill-opacity="1" fill-rule="nonzero"/><path fill="#32648d" d="M 566.105469 445.40625 L 566.160156 445.460938 L 566.160156 445.488281 L 566.078125 445.515625 C 562.148438 446.953125 558.894531 447.550781 556.152344 448.769531 C 553.359375 449.882812 551.109375 451.914062 549.78125 454.519531 L 549.753906 454.574219 C 548.070312 457.691406 546.605469 463.222656 547.039062 472.632812 C 548.152344 473.445312 549.507812 474.070312 550.890625 474.503906 L 551 474.53125 C 555.585938 475.941406 563.257812 476.863281 571.828125 476.726562 C 588.914062 476.539062 609.960938 472.496094 621.136719 467.238281 C 630.765625 462.652344 639.007812 457.121094 646.359375 450.558594 C 609.039062 458.367188 587.964844 456.28125 575.03125 450.882812 C 571.667969 449.421875 568.710938 447.601562 566.105469 445.40625 Z M 566.105469 445.40625 " fill-opacity="1" fill-rule="nonzero"/><path fill="#32648d" d="M 527.839844 158.609375 L 528 158.851562 L 528.191406 159.070312 Z M 527.839844 158.609375 " fill-opacity="1" fill-rule="nonzero"/><path fill="#32648d" d="M 385.101562 569.390625 C 385.074219 568.710938 385.101562 568.007812 385.074219 567.328125 C 385.074219 567.058594 385.046875 566.867188 385.046875 566.597656 Z M 385.101562 569.390625 " fill-opacity="1" fill-rule="nonzero"/><path fill="#32648d" d="M 356.488281 449.71875 C 354.914062 448.933594 353.070312 448.363281 351.089844 448.089844 L 351.007812 448.089844 L 351.007812 448.035156 L 350.4375 448.035156 C 349.027344 448.171875 346.96875 448.660156 342.953125 453.136719 C 333.625 463.710938 330.371094 470.355469 322.667969 476.566406 C 314.964844 482.746094 304.984375 486.054688 285.023438 490.207031 C 278.703125 491.507812 275.070312 492.945312 272.683594 494.109375 C 273.46875 494.761719 273.386719 494.921875 274.554688 495.546875 C 277.484375 497.175781 281.226562 498.613281 284.261719 499.398438 C 292.832031 501.566406 306.9375 504.089844 321.636719 501.566406 C 336.335938 499.019531 351.632812 491.886719 364.679688 473.363281 C 366.929688 470.164062 367.171875 465.445312 365.328125 460.375 C 363.484375 455.304688 359.363281 450.9375 356.488281 449.71875 Z M 356.488281 449.71875 " fill-opacity="1" fill-rule="nonzero"/><path fill="#32648d" d="M 466.003906 86.773438 L 464.457031 87.074219 C 464.972656 86.964844 465.542969 86.910156 466.058594 86.800781 C 466.03125 86.800781 466.03125 86.773438 466.003906 86.773438 Z M 466.003906 86.773438 " fill-opacity="1" fill-rule="nonzero"/><path fill="#32648d" d="M 541.453125 233.15625 C 523.253906 233.398438 513.058594 238.144531 507.6875 244.355469 C 500.09375 253.167969 499.390625 268.625 504.109375 287.664062 C 508.800781 306.726562 518.480469 328.039062 527.59375 345.75 C 532.152344 354.617188 536.570312 362.589844 540.125 369.070312 C 543.703125 375.578125 546.335938 380.1875 547.9375 384.121094 C 549.398438 387.753906 551.054688 390.953125 552.710938 393.9375 C 559.761719 378.886719 561.007812 364.109375 560.304688 348.703125 C 559.382812 329.640625 554.988281 310.144531 555.636719 290.402344 C 556.371094 267.324219 560.871094 252.300781 561.253906 234.457031 C 555.3125 233.644531 548.425781 233.15625 541.453125 233.15625 Z M 544.816406 246.878906 L 544.789062 247.09375 C 544.789062 247.175781 544.789062 247.257812 544.789062 247.367188 C 544.789062 248.613281 544.4375 249.804688 543.8125 250.78125 L 543.839844 250.753906 C 543 252.300781 542.023438 253.65625 540.882812 254.824219 C 538.226562 257.777344 534.671875 259.839844 530.660156 260.542969 L 530.550781 260.570312 C 529.980469 260.652344 529.332031 260.679688 528.652344 260.679688 C 525.234375 260.679688 522.089844 259.59375 519.511719 257.75 L 519.566406 257.777344 C 518.238281 256.855469 517.070312 255.800781 516.121094 254.605469 L 516.09375 254.578125 C 515.253906 253.65625 514.65625 252.464844 514.414062 251.1875 L 514.414062 251.136719 C 514.414062 251 514.386719 250.863281 514.386719 250.726562 C 514.386719 249.5625 514.820312 248.476562 515.554688 247.664062 C 516.421875 246.660156 517.453125 245.847656 518.644531 245.25 L 518.699219 245.222656 C 521.277344 243.757812 524.746094 242.675781 528.679688 242.078125 C 530.144531 241.859375 531.609375 241.753906 532.964844 241.726562 L 532.964844 241.804688 L 534.292969 241.804688 C 536.058594 241.859375 537.683594 242.050781 539.121094 242.402344 C 540.558594 242.726562 541.804688 243.214844 542.808594 243.894531 C 543.8125 244.574219 544.574219 245.601562 544.816406 246.878906 Z M 544.816406 246.878906 " fill-opacity="1" fill-rule="nonzero"/><path fill="#32648d" d="M 242.984375 352.664062 C 242.984375 347.78125 243.363281 343.011719 244.070312 338.320312 L 244.015625 338.832031 C 246.78125 318.792969 247.160156 300.054688 246.835938 285.25 C 246.511719 270.824219 245.480469 261.222656 245.480469 255.230469 C 245.480469 255.148438 245.480469 255.066406 245.480469 254.984375 C 245.480469 254.902344 245.480469 254.796875 245.480469 254.714844 L 245.480469 254.578125 L 245.453125 254.417969 L 245.453125 254.390625 C 245.453125 254.335938 245.453125 254.308594 245.453125 254.253906 C 245.453125 222.144531 251.09375 191.367188 261.320312 162.8125 C 268.832031 142.636719 280.003906 122.164062 296.738281 105.566406 C 280.277344 100.089844 251.09375 91.738281 219.472656 90.164062 C 216.433594 90 212.878906 89.894531 209.328125 89.894531 L 209.300781 89.894531 L 209.300781 89.917969 C 205.910156 89.917969 202.492188 90.027344 199.128906 90.21875 C 172.0625 91.789062 146.460938 99.738281 128.179688 119.371094 C 109.847656 139.003906 97.777344 171.191406 100.410156 224.476562 C 100.925781 234.566406 105.261719 262.824219 112.695312 296.394531 C 120.152344 329.964844 130.648438 369.476562 143.289062 404.378906 C 155.953125 439.277344 171.304688 469.648438 185.894531 484.023438 C 193.246094 491.207031 199.617188 494.109375 205.394531 493.867188 C 211.199219 493.59375 218.195312 490.207031 226.738281 479.820312 C 243.527344 459.371094 259.394531 441.285156 275.773438 423.710938 L 275.230469 424.28125 C 255.433594 406.789062 242.984375 381.21875 242.984375 352.664062 Z M 242.984375 352.664062 " fill-opacity="1" fill-rule="nonzero"/><path fill="#32648d" d="M 387.242188 88.5625 L 387.242188 88.507812 C 355.566406 88.589844 332.863281 98.273438 315.617188 112.78125 C 297.851562 127.777344 285.945312 148.304688 278.105469 169.320312 C 268.804688 194.269531 265.632812 218.402344 264.355469 234.78125 L 264.710938 234.566406 C 274.28125 229.140625 286.839844 223.71875 300.292969 220.574219 C 313.746094 217.425781 328.226562 216.476562 341.355469 221.628906 C 354.480469 226.78125 365.328125 238.90625 369.261719 257.289062 C 388.109375 345.613281 363.402344 378.453125 354.289062 403.238281 C 351.386719 410.371094 348.378906 419.535156 345.855469 428.890625 L 345.421875 430.707031 C 346.5625 430.4375 347.726562 430.113281 348.867188 430.003906 C 355.292969 429.460938 360.339844 431.628906 363.320312 432.933594 C 372.488281 436.78125 378.78125 444.863281 382.171875 454.085938 C 383.066406 456.496094 383.691406 459.101562 384.070312 461.785156 C 384.421875 462.707031 384.613281 463.792969 384.613281 464.902344 C 384.613281 465.011719 384.613281 465.121094 384.613281 465.230469 C 384.179688 478.789062 383.90625 494.707031 383.90625 510.707031 C 383.90625 529.660156 384.285156 548.535156 384.992188 567.328125 C 385.617188 581.59375 386.511719 594.230469 387.621094 604.179688 C 388.789062 614.324219 390.414062 621.996094 391.445312 624.601562 C 394.863281 633.277344 399.882812 644.640625 408.941406 652.371094 C 418 660.070312 430.988281 665.222656 454.71875 660.070312 C 475.304688 655.597656 487.996094 649.386719 496.488281 640.464844 C 504.976562 631.542969 510.019531 619.121094 513.246094 600.113281 C 518.101562 571.640625 527.839844 489.066406 529.03125 473.527344 C 528.488281 461.8125 530.199219 452.808594 533.914062 445.949219 C 537.710938 438.898438 543.625 434.585938 548.695312 432.253906 C 551.246094 431.089844 553.632812 430.300781 555.585938 429.734375 C 553.199219 426.289062 551.054688 423.414062 548.832031 420.621094 L 549.074219 420.917969 C 542.050781 412.351562 536.058594 402.507812 531.527344 391.902344 L 531.230469 391.117188 C 528.488281 385.449219 526.183594 381.164062 523.769531 376.960938 L 524.339844 378.019531 C 520.789062 371.511719 516.285156 363.375 511.566406 354.238281 C 502.128906 335.933594 491.875 313.75 486.535156 292.136719 C 481.21875 270.550781 480.457031 248.207031 494.074219 232.449219 C 506.113281 218.457031 527.296875 212.65625 559.054688 215.910156 C 558.132812 213.0625 557.5625 210.703125 555.964844 206.90625 C 548.234375 188.738281 538.929688 173.0625 527.894531 158.851562 C 500.960938 124.089844 457.433594 89.675781 390.226562 88.5625 Z M 387.242188 88.5625 " fill-opacity="1" fill-rule="nonzero"/><path fill="#32648d" d="M 263.976562 256.75 L 264.03125 256.722656 L 264.113281 256.640625 Z M 263.976562 256.75 " fill-opacity="1" fill-rule="nonzero"/><path fill="#32648d" d="M 303.84375 238.390625 L 304.117188 238.363281 L 304.332031 238.28125 Z M 303.84375 238.390625 " fill-opacity="1" fill-rule="nonzero"/><path fill="#32648d" d="M 337.449219 396.867188 C 348.324219 367.199219 369.722656 345.558594 351.714844 261.113281 C 348.757812 247.285156 342.925781 241.699219 334.898438 238.550781 C 330.992188 237.113281 326.464844 236.273438 321.71875 236.273438 C 321.417969 236.273438 321.09375 236.273438 320.796875 236.273438 L 320.851562 236.273438 C 315.074219 236.328125 309.484375 237.0625 304.117188 238.363281 C 292.726562 241.238281 282.691406 245.304688 273.359375 250.511719 C 269.863281 252.4375 266.851562 254.441406 264.03125 256.695312 L 263.515625 257.183594 C 263.679688 261.140625 264.4375 270.742188 264.761719 284.871094 C 265.089844 300.328125 264.710938 320.042969 261.753906 341.382812 C 255.351562 387.753906 288.601562 426.152344 327.65625 426.207031 C 329.960938 416.6875 333.707031 407.035156 337.449219 396.867188 Z M 314.367188 262.117188 C 313.09375 260.816406 312.0625 259.351562 311.222656 257.75 L 311.167969 257.644531 C 310.460938 256.503906 310.054688 255.121094 310.054688 253.628906 C 310.054688 253.359375 310.082031 253.085938 310.109375 252.816406 L 310.109375 252.84375 C 310.515625 249.914062 312.902344 248.394531 315.207031 247.554688 C 317.351562 246.851562 319.738281 246.445312 322.289062 246.445312 C 322.667969 246.445312 323.046875 246.445312 323.480469 246.46875 L 323.453125 246.363281 C 324.863281 246.363281 326.382812 246.496094 327.902344 246.714844 C 331.996094 247.285156 335.65625 248.394531 338.425781 250.023438 C 339.808594 250.78125 341 251.730469 341.949219 252.871094 L 341.976562 252.898438 C 342.898438 253.957031 343.441406 255.339844 343.441406 256.882812 C 343.441406 257.101562 343.441406 257.316406 343.414062 257.535156 L 343.414062 257.507812 C 343.144531 259.132812 342.410156 260.542969 341.40625 261.683594 C 340.296875 263.039062 339.046875 264.207031 337.636719 265.183594 L 337.582031 265.207031 C 334.84375 267.214844 331.398438 268.410156 327.683594 268.410156 C 326.953125 268.410156 326.21875 268.355469 325.515625 268.273438 L 325.597656 268.273438 C 321.09375 267.515625 317.242188 265.289062 314.367188 262.117188 Z M 314.367188 262.117188 " fill-opacity="1" fill-rule="nonzero"/><path fill="#32648d" d="M 272.816406 250.78125 C 273.007812 250.675781 273.199219 250.621094 273.359375 250.511719 C 273.386719 250.511719 273.414062 250.484375 273.441406 250.457031 Z M 272.816406 250.78125 " fill-opacity="1" fill-rule="nonzero"/><path fill="#32648d" d="M 542.347656 147.789062 C 554.09375 162.839844 564.261719 179.976562 572.101562 198.363281 L 572.671875 199.855469 C 575.625 207.015625 577.605469 213.0625 578.71875 217.753906 C 579.289062 220.113281 579.667969 222.089844 579.804688 224.152344 C 579.859375 225.183594 579.910156 226.242188 579.476562 228.058594 C 579.476562 228.140625 579.34375 228.328125 579.316406 228.410156 C 580.128906 252.164062 574.296875 268.273438 573.621094 290.945312 C 573.078125 307.378906 577.226562 326.683594 578.257812 347.753906 C 579.234375 367.550781 576.875 389.300781 564.15625 410.640625 C 565.238281 411.941406 566.1875 413.246094 567.21875 414.546875 C 600.820312 360.988281 625.042969 301.738281 637.949219 251.214844 C 644.867188 224.015625 648.527344 199.367188 648.855469 179.84375 C 649.125 160.316406 645.519531 146.160156 640.960938 140.25 C 605 93.714844 556.371094 81.867188 515.582031 81.539062 L 515.582031 81.566406 L 511.675781 81.566406 C 495.945312 81.8125 480.757812 83.628906 466.085938 86.800781 C 499.390625 101.769531 524.613281 124.820312 542.347656 147.789062 Z M 542.347656 147.789062 " fill-opacity="1" fill-rule="nonzero"/><g clip-path="url(#c6926b4d9c)"><path fill="#000000" d="M 391.71875 53.039062 L 391.445312 53.039062 C 359.878906 52.496094 332.785156 60.253906 310.894531 73.160156 C 289.363281 65.59375 244.695312 52.550781 197.582031 55.15625 C 164.792969 56.972656 128.996094 67.058594 102.46875 95.398438 C 76.027344 123.734375 62.058594 167.585938 64.988281 227.242188 C 65.800781 243.703125 70.441406 270.550781 78.113281 305.316406 C 85.816406 340.082031 96.613281 380.785156 110.089844 417.910156 C 123.570312 455.058594 138.324219 488.414062 161.402344 511.085938 C 172.929688 522.449219 188.796875 531.992188 207.484375 531.207031 C 220.609375 530.664062 232.460938 524.835938 242.714844 516.238281 C 247.703125 522.882812 253.019531 525.785156 257.875 528.46875 C 263.976562 531.859375 269.917969 534.164062 276.074219 535.679688 C 287.136719 538.476562 306.070312 542.21875 328.253906 538.394531 C 335.820312 537.117188 343.765625 534.625 351.6875 531.070312 C 351.984375 540.019531 352.335938 548.78125 352.664062 557.648438 C 353.773438 585.742188 354.453125 611.691406 362.78125 634.445312 C 364.109375 638.160156 367.796875 657.304688 382.253906 674.199219 C 396.707031 691.121094 425.078125 701.667969 457.351562 694.671875 C 480.132812 689.738281 509.070312 680.84375 528.328125 653.128906 C 547.339844 625.738281 555.910156 586.445312 557.617188 522.71875 C 558.050781 519.273438 558.566406 516.347656 559.082031 513.609375 L 563.613281 514.015625 L 564.15625 514.015625 C 588.453125 515.125 614.816406 511.628906 636.839844 501.269531 C 656.339844 492.128906 671.09375 482.882812 681.859375 466.476562 C 684.546875 462.410156 687.472656 457.5 688.289062 449.039062 C 689.101562 440.578125 684.300781 427.347656 676.328125 421.246094 C 660.378906 408.988281 650.371094 413.652344 639.632812 415.902344 C 630.058594 418.152344 618.992188 419.5625 607.65625 419.863281 L 607.441406 419.863281 C 638.414062 367.0625 660.625 310.984375 673.289062 261.359375 C 680.800781 232.070312 685.007812 205.0625 685.332031 181.441406 C 685.683594 157.824219 683.785156 136.914062 669.792969 118.828125 C 626.097656 62.3125 564.667969 46.695312 517.125 46.152344 C 515.660156 46.125 514.171875 46.097656 512.707031 46.125 L 512.707031 46.042969 C 486.832031 46.261719 461.933594 50.164062 438.367188 57.132812 L 437.253906 57.515625 C 423.640625 54.964844 407.828125 53.335938 391.71875 53.039062 Z M 455.96875 70.3125 C 472.566406 66.21875 491.660156 63.75 511.296875 63.507812 L 511.457031 63.507812 L 511.484375 63.398438 C 556.453125 62.964844 613.867188 75.738281 655.117188 129.078125 C 664.394531 141.0625 667.160156 158.582031 666.835938 180.167969 C 666.484375 201.726562 662.550781 227.542969 655.335938 255.828125 C 641.339844 310.605469 614.925781 374.464844 577.714844 431.765625 C 578.933594 432.660156 580.347656 433.449219 581.808594 434.042969 L 581.945312 434.097656 C 589.703125 437.351562 607.414062 440.144531 642.75 432.796875 C 651.648438 430.898438 658.15625 429.625 664.910156 434.832031 C 667.945312 437.433594 669.84375 441.285156 669.84375 445.597656 C 669.84375 445.867188 669.84375 446.140625 669.820312 446.410156 L 669.820312 446.382812 C 669.410156 449.828125 668.191406 452.917969 666.320312 455.496094 C 659.484375 465.878906 646.007812 475.722656 628.757812 483.832031 C 613.460938 491.046875 591.519531 494.816406 572.074219 495.03125 C 562.308594 495.140625 553.332031 494.382812 545.683594 491.96875 L 545.195312 491.777344 C 542.242188 520.523438 535.460938 577.28125 531.039062 603.175781 C 527.511719 624.058594 521.328125 640.65625 509.503906 653.074219 C 497.707031 665.496094 481.027344 672.980469 458.570312 677.859375 C 430.773438 683.90625 410.484375 677.398438 397.414062 666.253906 C 384.367188 655.136719 378.402344 640.382812 374.792969 631.351562 C 372.324219 625.117188 371.050781 617.035156 369.804688 606.242188 C 368.554688 595.449219 367.660156 582.242188 367.039062 567.355469 C 366.441406 552.222656 366.113281 534.433594 366.113281 516.5625 C 366.113281 510.679688 366.167969 504.820312 366.222656 498.9375 C 355.023438 509.351562 340.867188 516.671875 325.136719 519.464844 L 324.648438 519.546875 C 306.175781 522.71875 289.714844 519.601562 279.871094 517.105469 C 274.636719 515.777344 270.078125 513.90625 265.792969 511.574219 C 261.292969 509.132812 257.007812 506.339844 254.132812 500.890625 C 252.992188 498.800781 252.316406 496.28125 252.316406 493.621094 C 252.316406 492.5625 252.421875 491.507812 252.640625 490.53125 C 253.617188 486.898438 255.652344 483.804688 258.445312 481.636719 L 258.472656 481.609375 C 263.785156 477.242188 270.785156 474.800781 281.386719 472.578125 C 300.644531 468.566406 307.371094 465.828125 311.464844 462.546875 C 314.9375 459.726562 318.898438 454.03125 325.839844 445.679688 C 325.8125 445.433594 325.785156 445.027344 325.757812 444.648438 L 325.757812 444.566406 C 312.632812 444.1875 300.402344 440.632812 289.714844 434.640625 L 290.121094 434.859375 C 286.109375 439.140625 265.578125 461.109375 240.570312 491.589844 C 230.046875 504.332031 218.414062 511.65625 206.152344 512.171875 C 193.894531 512.6875 182.804688 506.449219 173.363281 497.203125 C 154.515625 478.679688 139.492188 446.816406 126.390625 410.804688 C 113.316406 374.792969 102.6875 334.683594 95.121094 300.515625 C 87.527344 266.347656 83.078125 238.796875 82.425781 225.507812 C 79.605469 169.050781 92.652344 131.003906 115.027344 107.003906 C 137.429688 83.003906 168.128906 73.921875 198.046875 72.183594 C 251.773438 69.066406 302.761719 88.023438 313.09375 92.089844 C 333 78.421875 358.628906 69.90625 390.605469 70.449219 C 406.714844 70.691406 422.203125 72.835938 437.011719 76.660156 L 435.652344 76.359375 L 436.195312 76.117188 C 441.375 74.164062 447.996094 72.183594 454.773438 70.558594 Z M 455.96875 70.3125 " fill-opacity="1" fill-rule="nonzero"/></g></svg>