<svg xmlns="http://www.w3.org/2000/svg" xmlns:xlink="http://www.w3.org/1999/xlink" width="1000" zoomAndPan="magnify" viewBox="0 0 750 749.999995" height="1000" preserveAspectRatio="xMidYMid meet" version="1.0"><defs><clipPath id="7595fbc046"><path d="M 47.386719 83 L 702.886719 83 L 702.886719 667 L 47.386719 667 Z M 47.386719 83 " clip-rule="nonzero"/></clipPath></defs><g clip-path="url(#7595fbc046)"><path fill="#00d8ff" d="M 586.105469 272.621094 C 579.132812 270.226562 572.101562 268.011719 565.015625 265.972656 C 566.203125 261.109375 567.300781 256.304688 568.273438 251.582031 C 584.238281 174.074219 573.800781 111.628906 538.152344 91.070312 C 503.96875 71.359375 448.070312 91.910156 391.613281 141.050781 C 386.050781 145.902344 380.609375 150.894531 375.296875 156.019531 C 371.742188 152.609375 368.121094 149.269531 364.441406 145.992188 C 305.273438 93.453125 245.964844 71.308594 210.355469 91.925781 C 176.203125 111.699219 166.089844 170.398438 180.464844 243.859375 C 181.894531 251.132812 183.507812 258.371094 185.308594 265.566406 C 176.914062 267.949219 168.8125 270.488281 161.058594 273.191406 C 91.6875 297.382812 47.386719 335.289062 47.386719 374.609375 C 47.386719 415.21875 94.945312 455.953125 167.199219 480.648438 C 173.058594 482.644531 178.964844 484.492188 184.914062 486.191406 C 182.980469 493.9375 181.265625 501.738281 179.769531 509.582031 C 166.066406 581.765625 176.765625 639.082031 210.824219 658.726562 C 246 679.015625 305.042969 658.164062 362.53125 607.902344 C 367.191406 603.816406 371.75 599.617188 376.203125 595.300781 C 381.957031 600.851562 387.863281 606.242188 393.914062 611.464844 C 449.601562 659.386719 504.601562 678.738281 538.625 659.039062 C 573.769531 638.691406 585.191406 577.121094 570.363281 502.210938 C 569.195312 496.339844 567.882812 490.503906 566.433594 484.695312 C 570.578125 483.46875 574.648438 482.203125 578.617188 480.886719 C 653.730469 456 702.601562 415.761719 702.601562 374.609375 C 702.601562 335.144531 656.871094 296.984375 586.105469 272.621094 Z M 569.8125 454.316406 C 566.230469 455.503906 562.554688 456.648438 558.808594 457.761719 C 550.515625 431.507812 539.328125 403.589844 525.628906 374.746094 C 538.699219 346.585938 549.457031 319.027344 557.519531 292.945312 C 564.222656 294.882812 570.726562 296.929688 576.996094 299.085938 C 637.628906 319.964844 674.613281 350.828125 674.613281 374.609375 C 674.613281 399.941406 634.671875 432.824219 569.8125 454.316406 Z M 542.90625 507.648438 C 549.460938 540.769531 550.394531 570.71875 546.050781 594.132812 C 542.152344 615.171875 534.304688 629.195312 524.597656 634.8125 C 503.953125 646.769531 459.792969 631.230469 412.171875 590.246094 C 406.539062 585.390625 401.046875 580.378906 395.695312 575.21875 C 414.160156 555.023438 432.609375 531.550781 450.617188 505.476562 C 482.292969 502.664062 512.21875 498.070312 539.355469 491.796875 C 540.664062 497.050781 541.847656 502.335938 542.90625 507.648438 Z M 270.765625 632.75 C 250.589844 639.871094 234.523438 640.078125 224.808594 634.476562 C 204.140625 622.554688 195.550781 576.535156 207.269531 514.804688 C 208.664062 507.507812 210.257812 500.253906 212.054688 493.050781 C 238.890625 498.988281 268.597656 503.257812 300.347656 505.832031 C 318.480469 531.34375 337.464844 554.792969 356.59375 575.328125 C 352.53125 579.261719 348.367188 583.097656 344.113281 586.828125 C 318.691406 609.050781 293.214844 624.816406 270.765625 632.75 Z M 176.253906 454.160156 C 144.304688 443.238281 117.921875 429.046875 99.835938 413.558594 C 83.582031 399.640625 75.378906 385.820312 75.378906 374.609375 C 75.378906 350.746094 110.949219 320.3125 170.273438 299.625 C 177.472656 297.117188 185.007812 294.75 192.828125 292.527344 C 201.027344 319.203125 211.78125 347.089844 224.761719 375.289062 C 211.613281 403.90625 200.703125 432.242188 192.425781 459.226562 C 186.996094 457.671875 181.601562 455.984375 176.253906 454.160156 Z M 207.933594 238.480469 C 195.621094 175.546875 203.800781 128.070312 224.378906 116.15625 C 246.300781 103.464844 294.769531 121.558594 345.859375 166.925781 C 349.191406 169.890625 352.46875 172.917969 355.6875 176 C 336.652344 196.445312 317.84375 219.71875 299.875 245.082031 C 269.058594 247.9375 239.558594 252.527344 212.441406 258.671875 C 210.769531 251.980469 209.265625 245.25 207.933594 238.484375 Z M 490.566406 308.277344 C 484.160156 297.214844 477.519531 286.285156 470.640625 275.507812 C 491.546875 278.152344 511.578125 281.660156 530.386719 285.949219 C 524.738281 304.050781 517.703125 322.976562 509.417969 342.378906 C 503.359375 330.886719 497.074219 319.519531 490.566406 308.277344 Z M 375.308594 196.007812 C 388.21875 209.996094 401.148438 225.613281 413.867188 242.558594 C 388.070312 241.339844 362.226562 241.335938 336.425781 242.542969 C 349.15625 225.753906 362.199219 210.15625 375.308594 196.007812 Z M 259.3125 308.472656 C 252.886719 319.621094 246.71875 330.917969 240.816406 342.355469 C 232.667969 323.023438 225.691406 304.011719 220 285.652344 C 238.691406 281.472656 258.628906 278.050781 279.398438 275.457031 C 272.445312 286.300781 265.75 297.308594 259.3125 308.46875 Z M 279.996094 475.753906 C 258.535156 473.359375 238.300781 470.113281 219.613281 466.042969 C 225.394531 447.359375 232.523438 427.941406 240.851562 408.195312 C 246.773438 419.640625 252.96875 430.945312 259.425781 442.101562 C 266.0625 453.566406 272.9375 464.800781 279.996094 475.753906 Z M 376.082031 555.179688 C 362.816406 540.867188 349.582031 525.03125 336.660156 507.996094 C 349.207031 508.488281 361.996094 508.742188 374.996094 508.742188 C 388.351562 508.742188 401.550781 508.441406 414.546875 507.863281 C 401.789062 525.203125 388.90625 541.0625 376.082031 555.179688 Z M 509.679688 407.1875 C 518.4375 427.152344 525.820312 446.464844 531.679688 464.832031 C 512.683594 469.167969 492.171875 472.660156 470.5625 475.25 C 477.488281 464.273438 484.191406 453.15625 490.675781 441.910156 C 497.265625 430.476562 503.605469 418.898438 509.679688 407.1875 Z M 466.429688 427.921875 C 456.507812 445.164062 446.023438 462.082031 435 478.644531 C 415.027344 480.058594 395.015625 480.761719 374.996094 480.75 C 354.605469 480.75 334.769531 480.113281 315.671875 478.875 C 304.359375 462.351562 293.675781 445.40625 283.644531 428.074219 L 283.648438 428.074219 C 273.664062 410.835938 264.339844 393.222656 255.691406 375.277344 C 264.316406 357.324219 273.613281 339.703125 283.5625 322.453125 C 293.507812 305.199219 304.105469 288.324219 315.332031 271.871094 C 334.816406 270.398438 354.796875 269.628906 374.992188 269.628906 L 374.996094 269.628906 C 395.28125 269.628906 415.289062 270.40625 434.769531 271.890625 C 445.882812 288.316406 456.410156 305.132812 466.339844 322.304688 C 476.320312 339.519531 485.742188 357.050781 494.585938 374.878906 C 485.832031 392.890625 476.441406 410.582031 466.429688 427.921875 Z M 524.171875 115.320312 C 546.109375 127.976562 554.644531 179.007812 540.859375 245.933594 C 539.980469 250.203125 538.992188 254.550781 537.914062 258.960938 C 510.730469 252.683594 481.210938 248.019531 450.304688 245.117188 C 432.304688 219.476562 413.648438 196.164062 394.921875 175.984375 C 399.828125 171.253906 404.851562 166.644531 409.988281 162.164062 C 458.363281 120.0625 503.574219 103.441406 524.171875 115.320312 Z M 374.996094 316.09375 C 407.308594 316.09375 433.503906 342.292969 433.503906 374.609375 C 433.503906 406.925781 407.308594 433.125 374.996094 433.125 C 342.683594 433.125 316.484375 406.925781 316.484375 374.609375 C 316.484375 342.292969 342.683594 316.09375 374.996094 316.09375 Z M 374.996094 316.09375 " fill-opacity="1" fill-rule="nonzero"/></g></svg>