<svg xmlns="http://www.w3.org/2000/svg" xmlns:xlink="http://www.w3.org/1999/xlink" width="1000" zoomAndPan="magnify" viewBox="0 0 750 749.999995" height="1000" preserveAspectRatio="xMidYMid meet" version="1.0"><defs><clipPath id="f1babc8ec0"><path d="M 46.042969 46.042969 L 703.792969 46.042969 L 703.792969 703.792969 L 46.042969 703.792969 Z M 46.042969 46.042969 " clip-rule="nonzero"/></clipPath></defs><rect x="-75" width="900" fill="#ffffff" y="-74.999999" height="899.999994" fill-opacity="1"/><rect x="-75" width="900" fill="#ffffff" y="-74.999999" height="899.999994" fill-opacity="1"/><g clip-path="url(#f1babc8ec0)"><path fill="#f06292" d="M 374.785156 46.570312 C 556.5 46.570312 703.792969 193.863281 703.792969 375.578125 C 703.792969 557.273438 556.5 704.585938 374.785156 704.585938 C 193.089844 704.585938 45.78125 557.292969 45.78125 375.578125 C 45.796875 193.863281 193.089844 46.570312 374.785156 46.570312 Z M 374.785156 46.570312 " fill-opacity="1" fill-rule="evenodd"/></g><path fill="#ffffff" d="M 581.160156 187.386719 C 566.257812 128.945312 469.378906 109.742188 377.6875 142.316406 C 323.121094 161.703125 264.039062 192.132812 221.558594 231.863281 C 171.046875 279.109375 163.003906 320.222656 166.316406 337.398438 C 178.023438 398.011719 261.089844 437.644531 295.230469 467.050781 L 295.230469 467.234375 C 285.15625 472.195312 211.46875 509.484375 194.226562 547.613281 C 176.027344 587.835938 197.128906 616.703125 211.089844 620.59375 C 254.363281 632.628906 298.757812 610.984375 322.628906 575.390625 C 345.65625 541.035156 343.746094 496.691406 333.738281 474.621094 C 347.535156 470.976562 363.640625 469.34375 384.082031 471.734375 C 441.796875 478.476562 453.121094 514.511719 450.945312 529.597656 C 448.789062 544.679688 436.671875 552.972656 432.632812 555.476562 C 428.578125 557.984375 427.355469 558.855469 427.6875 560.703125 C 428.179688 563.40625 430.042969 563.308594 433.503906 562.730469 C 438.253906 561.921875 463.804688 550.464844 464.910156 522.625 C 466.292969 487.28125 432.433594 447.75 372.460938 448.769531 C 347.765625 449.199219 332.238281 451.539062 321.011719 455.726562 C 320.1875 454.789062 319.332031 453.847656 318.472656 452.910156 C 281.398438 413.34375 212.855469 385.371094 215.757812 332.1875 C 216.8125 312.851562 223.535156 261.945312 347.453125 200.195312 C 448.96875 149.601562 530.238281 163.53125 544.285156 194.375 C 564.347656 238.457031 500.847656 320.371094 395.425781 332.1875 C 355.25 336.691406 334.101562 321.128906 328.84375 315.324219 C 323.304688 309.226562 322.480469 308.945312 320.417969 310.097656 C 317.054688 311.960938 319.183594 317.351562 320.417969 320.566406 C 323.566406 328.761719 336.492188 343.285156 358.5 350.519531 C 377.867188 356.882812 425.03125 360.363281 482.070312 338.304688 C 545.933594 313.578125 595.816406 244.835938 581.160156 187.386719 Z M 309.40625 485.167969 C 314.1875 502.875 313.660156 519.390625 308.730469 534.34375 C 308.1875 536.007812 307.578125 537.640625 306.917969 539.273438 C 306.257812 540.890625 305.550781 542.503906 304.792969 544.085938 C 300.984375 552 295.855469 559.402344 289.59375 566.242188 C 270.46875 587.097656 243.765625 594.976562 232.324219 588.332031 C 219.960938 581.160156 226.15625 551.769531 248.3125 528.328125 C 272.152344 503.121094 306.457031 486.917969 306.457031 486.917969 L 306.40625 486.816406 C 307.394531 486.273438 308.402344 485.730469 309.40625 485.167969 Z M 309.40625 485.167969 " fill-opacity="1" fill-rule="nonzero"/></svg>