<svg xmlns="http://www.w3.org/2000/svg" xmlns:xlink="http://www.w3.org/1999/xlink" width="1000" zoomAndPan="magnify" viewBox="0 0 750 749.999995" height="1000" preserveAspectRatio="xMidYMid meet" version="1.0"><defs><clipPath id="4b5487d286"><path d="M 47.386719 47.386719 L 702.886719 47.386719 L 702.886719 702.886719 L 47.386719 702.886719 Z M 47.386719 47.386719 " clip-rule="nonzero"/></clipPath></defs><g clip-path="url(#4b5487d286)"><path fill="#007acc" d="M 47.386719 702.886719 L 702.886719 702.886719 L 702.886719 47.386719 L 47.386719 47.386719 Z M 47.386719 702.886719 " fill-opacity="1" fill-rule="nonzero"/></g><path fill="#ffffff" d="M 192.3125 377.289062 L 192.109375 404.148438 L 277.425781 404.148438 L 277.425781 646.582031 L 337.777344 646.582031 L 337.777344 404.148438 L 423.097656 404.148438 L 423.097656 377.824219 C 423.097656 363.257812 422.785156 351.066406 422.367188 350.761719 C 422.054688 350.351562 370.136719 350.144531 307.179688 350.25 L 192.621094 350.554688 Z M 192.3125 377.289062 " fill-opacity="1" fill-rule="nonzero"/><path fill="#ffffff" d="M 576.320312 349.8125 C 592.964844 353.960938 605.664062 361.363281 617.3125 373.421875 C 623.332031 379.875 632.292969 391.628906 633.011719 394.445312 C 633.214844 395.289062 604.714844 414.414062 587.433594 425.144531 C 586.816406 425.554688 584.332031 422.839844 581.515625 418.691406 C 573.09375 406.402344 564.234375 401.101562 550.714844 400.179688 C 530.84375 398.820312 518.042969 409.21875 518.144531 426.605469 C 518.144531 431.699219 518.886719 434.722656 520.960938 438.871094 C 525.339844 447.933594 533.457031 453.335938 558.933594 464.371094 C 605.867188 484.550781 625.941406 497.863281 638.4375 516.8125 C 652.367188 537.9375 655.492188 571.632812 646.015625 596.703125 C 635.621094 623.972656 609.8125 642.484375 573.503906 648.628906 C 562.261719 650.601562 535.632812 650.292969 523.546875 648.117188 C 497.222656 643.429688 472.257812 630.421875 456.871094 613.371094 C 450.828125 606.714844 439.074219 589.328125 439.792969 588.070312 C 440.125 587.664062 442.8125 586 445.832031 584.230469 C 448.753906 582.566406 459.789062 576.21875 470.183594 570.175781 L 489.003906 559.265625 L 492.972656 565.078125 C 498.480469 573.503906 510.566406 585.050781 517.835938 588.917969 C 538.757812 599.925781 567.460938 598.367188 581.621094 585.691406 C 587.664062 580.160156 590.144531 574.449219 590.144531 566.027344 C 590.144531 558.421875 589.226562 555.09375 585.253906 549.382812 C 580.160156 542.085938 569.765625 535.941406 540.214844 523.164062 C 506.390625 508.59375 491.820312 499.527344 478.507812 485.164062 C 470.800781 476.84375 463.527344 463.527344 460.507812 452.390625 C 457.996094 443.144531 457.382812 419.945312 459.355469 410.574219 C 466.34375 377.902344 491.003906 355.113281 526.566406 348.355469 C 538.117188 346.175781 564.976562 346.996094 576.320312 349.8125 Z M 576.320312 349.8125 " fill-opacity="1" fill-rule="nonzero"/></svg>