<svg xmlns="http://www.w3.org/2000/svg" xmlns:xlink="http://www.w3.org/1999/xlink" width="40" zoomAndPan="magnify" viewBox="0 0 30 30.000001" height="40" preserveAspectRatio="xMidYMid meet" version="1.0"><defs><clipPath id="90415ceff2"><path d="M 0.484375 0.144531 L 29.515625 0.144531 L 29.515625 29.03125 L 0.484375 29.03125 Z M 0.484375 0.144531 " clip-rule="nonzero"/></clipPath></defs><g clip-path="url(#90415ceff2)"><path fill="#212529" d="M 29.367188 14.585938 C 29.367188 15.535156 29.277344 16.476562 29.089844 17.40625 C 28.90625 18.335938 28.632812 19.238281 28.269531 20.113281 C 27.90625 20.992188 27.460938 21.824219 26.933594 22.613281 C 26.40625 23.398438 25.808594 24.128906 25.136719 24.800781 C 24.46875 25.46875 23.738281 26.070312 22.949219 26.597656 C 22.160156 27.121094 21.328125 27.566406 20.453125 27.929688 C 19.578125 28.292969 18.675781 28.566406 17.742188 28.753906 C 16.8125 28.9375 15.875 29.03125 14.925781 29.03125 C 13.976562 29.03125 13.039062 28.9375 12.109375 28.753906 C 11.179688 28.566406 10.277344 28.292969 9.398438 27.929688 C 8.523438 27.566406 7.691406 27.121094 6.902344 26.597656 C 6.113281 26.070312 5.382812 25.46875 4.714844 24.800781 C 4.042969 24.128906 3.445312 23.398438 2.917969 22.613281 C 2.390625 21.824219 1.945312 20.992188 1.582031 20.113281 C 1.21875 19.238281 0.945312 18.335938 0.761719 17.40625 C 0.578125 16.476562 0.484375 15.535156 0.484375 14.585938 C 0.484375 13.640625 0.578125 12.699219 0.761719 11.769531 C 0.945312 10.839844 1.21875 9.9375 1.582031 9.0625 C 1.945312 8.183594 2.390625 7.351562 2.917969 6.5625 C 3.445312 5.773438 4.042969 5.046875 4.714844 4.375 C 5.382812 3.703125 6.113281 3.105469 6.902344 2.578125 C 7.691406 2.050781 8.523438 1.605469 9.398438 1.246094 C 10.277344 0.882812 11.179688 0.609375 12.109375 0.421875 C 13.039062 0.238281 13.976562 0.144531 14.925781 0.144531 C 15.875 0.144531 16.8125 0.238281 17.742188 0.421875 C 18.675781 0.609375 19.578125 0.882812 20.453125 1.246094 C 21.328125 1.605469 22.160156 2.050781 22.949219 2.578125 C 23.738281 3.105469 24.46875 3.703125 25.136719 4.375 C 25.808594 5.046875 26.40625 5.773438 26.933594 6.5625 C 27.460938 7.351562 27.90625 8.183594 28.269531 9.0625 C 28.632812 9.9375 28.90625 10.839844 29.089844 11.769531 C 29.277344 12.699219 29.367188 13.640625 29.367188 14.585938 Z M 29.367188 14.585938 " fill-opacity="1" fill-rule="nonzero"/></g><path fill="#ffffff" d="M 22.511719 19.609375 C 22.71875 19.191406 22.527344 18.6875 22.09375 18.515625 L 18.21875 16.984375 C 17.941406 16.875 17.628906 16.964844 17.449219 17.199219 L 16.585938 18.324219 C 16.496094 18.445312 16.339844 18.488281 16.199219 18.433594 C 14.640625 17.816406 13.257812 16.253906 13.257812 16.253906 C 13.257812 16.253906 11.695312 14.871094 11.078125 13.316406 C 11.023438 13.175781 11.070312 13.015625 11.1875 12.925781 L 12.316406 12.066406 C 12.550781 11.886719 12.636719 11.570312 12.527344 11.292969 L 10.996094 7.421875 C 10.828125 6.988281 10.320312 6.796875 9.902344 7.003906 C 8.789062 7.5625 6.941406 8.851562 7.304688 11.167969 C 7.816406 14.445312 10.496094 17.519531 11.246094 18.269531 C 11.996094 19.019531 15.066406 21.695312 18.34375 22.210938 C 20.664062 22.574219 21.953125 20.722656 22.511719 19.609375 Z M 22.511719 19.609375 " fill-opacity="1" fill-rule="nonzero"/></svg>