<svg xmlns="http://www.w3.org/2000/svg" xmlns:xlink="http://www.w3.org/1999/xlink" width="40" zoomAndPan="magnify" viewBox="0 0 30 30.000001" height="40" preserveAspectRatio="xMidYMid meet" version="1.0"><defs><clipPath id="77fad53783"><path d="M 0.484375 0 L 29.515625 0 L 29.515625 29.03125 L 0.484375 29.03125 Z M 0.484375 0 " clip-rule="nonzero"/></clipPath></defs><g clip-path="url(#77fad53783)"><path fill="#000000" d="M 15 0 C 6.984375 0 0.484375 6.5 0.484375 14.519531 C 0.484375 16.898438 1.058594 19.144531 2.074219 21.128906 C 2.296875 21.5625 2.355469 22.0625 2.226562 22.53125 L 0.902344 27.476562 C 0.71875 28.167969 1.351562 28.804688 2.042969 28.617188 L 6.988281 27.292969 C 7.460938 27.167969 7.957031 27.222656 8.390625 27.445312 C 10.375 28.460938 12.621094 29.035156 15 29.035156 C 23.019531 29.035156 29.519531 22.535156 29.519531 14.519531 C 29.519531 6.5 23.019531 0 15 0 Z M 15 0 " fill-opacity="1" fill-rule="nonzero"/></g><path fill="#ffffff" d="M 26.453125 14.519531 C 26.453125 15.269531 26.378906 16.015625 26.230469 16.75 C 26.085938 17.488281 25.867188 18.203125 25.578125 18.898438 C 25.292969 19.59375 24.9375 20.253906 24.523438 20.878906 C 24.105469 21.503906 23.628906 22.082031 23.097656 22.613281 C 22.566406 23.144531 21.988281 23.621094 21.363281 24.039062 C 20.738281 24.457031 20.078125 24.808594 19.382812 25.097656 C 18.6875 25.382812 17.972656 25.601562 17.234375 25.746094 C 16.5 25.894531 15.753906 25.96875 15 25.96875 C 14.25 25.96875 13.503906 25.894531 12.769531 25.746094 C 12.03125 25.601562 11.316406 25.382812 10.621094 25.097656 C 9.925781 24.808594 9.265625 24.457031 8.640625 24.039062 C 8.015625 23.621094 7.4375 23.144531 6.90625 22.613281 C 6.375 22.082031 5.898438 21.503906 5.480469 20.878906 C 5.0625 20.253906 4.710938 19.59375 4.425781 18.898438 C 4.136719 18.203125 3.917969 17.488281 3.773438 16.75 C 3.625 16.015625 3.550781 15.269531 3.550781 14.519531 C 3.550781 13.765625 3.625 13.023438 3.773438 12.285156 C 3.917969 11.546875 4.136719 10.832031 4.425781 10.136719 C 4.710938 9.441406 5.0625 8.78125 5.480469 8.15625 C 5.898438 7.53125 6.375 6.953125 6.90625 6.421875 C 7.4375 5.890625 8.015625 5.414062 8.640625 5 C 9.265625 4.582031 9.925781 4.226562 10.621094 3.941406 C 11.316406 3.652344 12.03125 3.433594 12.769531 3.289062 C 13.503906 3.140625 14.25 3.070312 15 3.070312 C 15.753906 3.070312 16.5 3.140625 17.234375 3.289062 C 17.972656 3.433594 18.6875 3.652344 19.382812 3.941406 C 20.078125 4.226562 20.738281 4.582031 21.363281 5 C 21.988281 5.414062 22.566406 5.890625 23.097656 6.421875 C 23.628906 6.953125 24.105469 7.53125 24.523438 8.15625 C 24.9375 8.78125 25.292969 9.441406 25.578125 10.136719 C 25.867188 10.832031 26.085938 11.546875 26.230469 12.285156 C 26.378906 13.023438 26.453125 13.765625 26.453125 14.519531 Z M 26.453125 14.519531 " fill-opacity="1" fill-rule="nonzero"/><path fill="#000000" d="M 20.507812 17.613281 C 20.503906 17.242188 20.277344 16.917969 19.933594 16.785156 L 17.785156 15.953125 C 17.445312 15.824219 17.058594 15.90625 16.800781 16.164062 L 16.253906 16.707031 C 16.226562 16.734375 16.183594 16.742188 16.152344 16.726562 C 15.207031 16.226562 13.292969 14.3125 12.792969 13.367188 C 12.777344 13.335938 12.785156 13.292969 12.8125 13.265625 L 13.355469 12.71875 C 13.617188 12.460938 13.699219 12.074219 13.566406 11.734375 L 12.734375 9.589844 C 12.601562 9.242188 12.277344 9.015625 11.90625 9.011719 L 11.65625 9.007812 C 11.15625 9.003906 10.675781 9.234375 10.371094 9.621094 C 9.898438 10.21875 9.367188 11.121094 9.519531 12.011719 C 9.597656 12.464844 9.953125 13.179688 10.601562 14.195312 C 11.804688 16.082031 13.4375 17.714844 15.324219 18.917969 C 16.339844 19.570312 17.054688 19.921875 17.507812 20 C 17.613281 20.019531 17.71875 20.027344 17.828125 20.027344 C 18.613281 20.027344 19.371094 19.566406 19.898438 19.148438 C 20.289062 18.84375 20.515625 18.363281 20.511719 17.867188 Z M 20.507812 17.613281 " fill-opacity="1" fill-rule="nonzero"/></svg>